<svg xmlns="http://www.w3.org/2000/svg" width="760" height="882" viewBox="0 0 760 882">
<rect width="100%" height="100%" fill="white"/>
<text x="20" y="26" font-family="monospace" font-size="16" fill="#111827">PR291 no-C Soft-Muon compound screen</text>
<text x="20" y="66" font-family="monospace" font-size="14" fill="#111827">mlpfc_sched</text>
<rect x="60" y="86" width="680" height="192" fill="#f9fafb" stroke="#d1d5db"/>
<line x1="60" y1="86.0" x2="740" y2="86.0" stroke="#e5e7eb"/>
<text x="8" y="90.0" font-family="monospace" font-size="11" fill="#4b5563">11.3343</text>
<line x1="60" y1="134.0" x2="740" y2="134.0" stroke="#e5e7eb"/>
<text x="8" y="138.0" font-family="monospace" font-size="11" fill="#4b5563">9.5070</text>
<line x1="60" y1="182.0" x2="740" y2="182.0" stroke="#e5e7eb"/>
<text x="8" y="186.0" font-family="monospace" font-size="11" fill="#4b5563">7.6798</text>
<line x1="60" y1="230.0" x2="740" y2="230.0" stroke="#e5e7eb"/>
<text x="8" y="234.0" font-family="monospace" font-size="11" fill="#4b5563">5.8525</text>
<line x1="60" y1="278.0" x2="740" y2="278.0" stroke="#e5e7eb"/>
<text x="8" y="282.0" font-family="monospace" font-size="11" fill="#4b5563">4.0252</text>
<line x1="60.0" y1="278" x2="60.0" y2="282" stroke="#9ca3af"/>
<text x="52.0" y="298" font-family="monospace" font-size="11" fill="#4b5563">0</text>
<line x1="400.0" y1="278" x2="400.0" y2="282" stroke="#9ca3af"/>
<text x="392.0" y="298" font-family="monospace" font-size="11" fill="#4b5563">40</text>
<line x1="740.0" y1="278" x2="740.0" y2="282" stroke="#9ca3af"/>
<text x="732.0" y="298" font-family="monospace" font-size="11" fill="#4b5563">80</text>
<polyline points="60.0,99.2 400.0,235.4 740.0,264.8" fill="none" stroke="#dc2626" stroke-width="2.2"/>
<circle cx="60.0" cy="99.2" r="3" fill="#dc2626"/>
<circle cx="400.0" cy="235.4" r="3" fill="#dc2626"/>
<circle cx="740.0" cy="264.8" r="3" fill="#dc2626"/>
<rect x="68" y="94" width="10" height="10" fill="#dc2626"/>
<text x="84" y="103" font-family="monospace" font-size="11" fill="#111827">paired_active</text>
<polyline points="60.0,99.2 400.0,235.4 740.0,264.8" fill="none" stroke="#6b7280" stroke-width="2.2"/>
<circle cx="60.0" cy="99.2" r="3" fill="#6b7280"/>
<circle cx="400.0" cy="235.4" r="3" fill="#6b7280"/>
<circle cx="740.0" cy="264.8" r="3" fill="#6b7280"/>
<rect x="218" y="94" width="10" height="10" fill="#6b7280"/>
<text x="234" y="103" font-family="monospace" font-size="11" fill="#111827">paired_noop</text>
<polyline points="60.0,99.2 400.0,235.5 740.0,264.7" fill="none" stroke="#2563eb" stroke-width="2.2"/>
<circle cx="60.0" cy="99.2" r="3" fill="#2563eb"/>
<circle cx="400.0" cy="235.5" r="3" fill="#2563eb"/>
<circle cx="740.0" cy="264.7" r="3" fill="#2563eb"/>
<rect x="368" y="94" width="10" height="10" fill="#2563eb"/>
<text x="384" y="103" font-family="monospace" font-size="11" fill="#111827">paired_noop2</text>
<text x="20" y="346" font-family="monospace" font-size="14" fill="#111827">mlpfc</text>
<rect x="60" y="366" width="680" height="192" fill="#f9fafb" stroke="#d1d5db"/>
<line x1="60" y1="366.0" x2="740" y2="366.0" stroke="#e5e7eb"/>
<text x="8" y="370.0" font-family="monospace" font-size="11" fill="#4b5563">11.3316</text>
<line x1="60" y1="414.0" x2="740" y2="414.0" stroke="#e5e7eb"/>
<text x="8" y="418.0" font-family="monospace" font-size="11" fill="#4b5563">9.5054</text>
<line x1="60" y1="462.0" x2="740" y2="462.0" stroke="#e5e7eb"/>
<text x="8" y="466.0" font-family="monospace" font-size="11" fill="#4b5563">7.6793</text>
<line x1="60" y1="510.0" x2="740" y2="510.0" stroke="#e5e7eb"/>
<text x="8" y="514.0" font-family="monospace" font-size="11" fill="#4b5563">5.8531</text>
<line x1="60" y1="558.0" x2="740" y2="558.0" stroke="#e5e7eb"/>
<text x="8" y="562.0" font-family="monospace" font-size="11" fill="#4b5563">4.0269</text>
<line x1="60.0" y1="558" x2="60.0" y2="562" stroke="#9ca3af"/>
<text x="52.0" y="578" font-family="monospace" font-size="11" fill="#4b5563">0</text>
<line x1="400.0" y1="558" x2="400.0" y2="562" stroke="#9ca3af"/>
<text x="392.0" y="578" font-family="monospace" font-size="11" fill="#4b5563">40</text>
<line x1="740.0" y1="558" x2="740.0" y2="562" stroke="#9ca3af"/>
<text x="732.0" y="578" font-family="monospace" font-size="11" fill="#4b5563">80</text>
<polyline points="60.0,379.2 400.0,516.4 740.0,544.6" fill="none" stroke="#dc2626" stroke-width="2.2"/>
<circle cx="60.0" cy="379.2" r="3" fill="#dc2626"/>
<circle cx="400.0" cy="516.4" r="3" fill="#dc2626"/>
<circle cx="740.0" cy="544.6" r="3" fill="#dc2626"/>
<rect x="68" y="374" width="10" height="10" fill="#dc2626"/>
<text x="84" y="383" font-family="monospace" font-size="11" fill="#111827">paired_active</text>
<polyline points="60.0,379.2 400.0,516.2 740.0,544.8" fill="none" stroke="#6b7280" stroke-width="2.2"/>
<circle cx="60.0" cy="379.2" r="3" fill="#6b7280"/>
<circle cx="400.0" cy="516.2" r="3" fill="#6b7280"/>
<circle cx="740.0" cy="544.8" r="3" fill="#6b7280"/>
<rect x="218" y="374" width="10" height="10" fill="#6b7280"/>
<text x="234" y="383" font-family="monospace" font-size="11" fill="#111827">paired_noop</text>
<polyline points="60.0,379.2 400.0,516.5 740.0,544.6" fill="none" stroke="#2563eb" stroke-width="2.2"/>
<circle cx="60.0" cy="379.2" r="3" fill="#2563eb"/>
<circle cx="400.0" cy="516.5" r="3" fill="#2563eb"/>
<circle cx="740.0" cy="544.6" r="3" fill="#2563eb"/>
<rect x="368" y="374" width="10" height="10" fill="#2563eb"/>
<text x="384" y="383" font-family="monospace" font-size="11" fill="#111827">paired_noop2</text>
<text x="20" y="626" font-family="monospace" font-size="14" fill="#111827">all_l01</text>
<rect x="60" y="646" width="680" height="192" fill="#f9fafb" stroke="#d1d5db"/>
<line x1="60" y1="646.0" x2="740" y2="646.0" stroke="#e5e7eb"/>
<text x="8" y="650.0" font-family="monospace" font-size="11" fill="#4b5563">11.3336</text>
<line x1="60" y1="694.0" x2="740" y2="694.0" stroke="#e5e7eb"/>
<text x="8" y="698.0" font-family="monospace" font-size="11" fill="#4b5563">9.5107</text>
<line x1="60" y1="742.0" x2="740" y2="742.0" stroke="#e5e7eb"/>
<text x="8" y="746.0" font-family="monospace" font-size="11" fill="#4b5563">7.6878</text>
<line x1="60" y1="790.0" x2="740" y2="790.0" stroke="#e5e7eb"/>
<text x="8" y="794.0" font-family="monospace" font-size="11" fill="#4b5563">5.8650</text>
<line x1="60" y1="838.0" x2="740" y2="838.0" stroke="#e5e7eb"/>
<text x="8" y="842.0" font-family="monospace" font-size="11" fill="#4b5563">4.0421</text>
<line x1="60.0" y1="838" x2="60.0" y2="842" stroke="#9ca3af"/>
<text x="52.0" y="858" font-family="monospace" font-size="11" fill="#4b5563">0</text>
<line x1="400.0" y1="838" x2="400.0" y2="842" stroke="#9ca3af"/>
<text x="392.0" y="858" font-family="monospace" font-size="11" fill="#4b5563">40</text>
<line x1="740.0" y1="838" x2="740.0" y2="842" stroke="#9ca3af"/>
<text x="732.0" y="858" font-family="monospace" font-size="11" fill="#4b5563">80</text>
<polyline points="60.0,659.2 400.0,794.9 740.0,824.8" fill="none" stroke="#dc2626" stroke-width="2.2"/>
<circle cx="60.0" cy="659.2" r="3" fill="#dc2626"/>
<circle cx="400.0" cy="794.9" r="3" fill="#dc2626"/>
<circle cx="740.0" cy="824.8" r="3" fill="#dc2626"/>
<rect x="68" y="654" width="10" height="10" fill="#dc2626"/>
<text x="84" y="663" font-family="monospace" font-size="11" fill="#111827">paired_active</text>
<polyline points="60.0,659.2 400.0,794.7 740.0,824.7" fill="none" stroke="#6b7280" stroke-width="2.2"/>
<circle cx="60.0" cy="659.2" r="3" fill="#6b7280"/>
<circle cx="400.0" cy="794.7" r="3" fill="#6b7280"/>
<circle cx="740.0" cy="824.7" r="3" fill="#6b7280"/>
<rect x="218" y="654" width="10" height="10" fill="#6b7280"/>
<text x="234" y="663" font-family="monospace" font-size="11" fill="#111827">paired_noop</text>
<polyline points="60.0,659.2 400.0,794.6 740.0,824.5" fill="none" stroke="#2563eb" stroke-width="2.2"/>
<circle cx="60.0" cy="659.2" r="3" fill="#2563eb"/>
<circle cx="400.0" cy="794.6" r="3" fill="#2563eb"/>
<circle cx="740.0" cy="824.5" r="3" fill="#2563eb"/>
<rect x="368" y="654" width="10" height="10" fill="#2563eb"/>
<text x="384" y="663" font-family="monospace" font-size="11" fill="#111827">paired_noop2</text>
</svg>